<?xml version="1.0" encoding="UTF-8" standalone="no"?>
<svg
   xmlns:dc="http://purl.org/dc/elements/1.1/"
   xmlns:cc="http://creativecommons.org/ns#"
   xmlns:rdf="http://www.w3.org/1999/02/22-rdf-syntax-ns#"
   xmlns:svg="http://www.w3.org/2000/svg"
   xmlns="http://www.w3.org/2000/svg"
   xmlns:sodipodi="http://sodipodi.sourceforge.net/DTD/sodipodi-0.dtd"
   xmlns:inkscape="http://www.inkscape.org/namespaces/inkscape"
   width="210mm"
   height="297mm"
   viewBox="0 0 210 297"
   version="1.1"
   id="svg8"
   inkscape:version="1.0beta2 (2b71d25, 2019-12-03)"
   sodipodi:docname="p6.svg">
  <defs
     id="defs2">
    <clipPath
       clipPathUnits="userSpaceOnUse"
       id="clipPath845">
      <rect
         y="80.27095"
         x="22.743435"
         height="6.0987554"
         width="20.287994"
         id="rect847"
         style="fill:#008000;fill-rule:evenodd;stroke:none;stroke-width:0.999998;stroke-linecap:round;paint-order:stroke fill markers" />
    </clipPath>
  </defs>
  <sodipodi:namedview
     showguides="false"
     id="base"
     pagecolor="#ffffff"
     bordercolor="#666666"
     borderopacity="1.0"
     inkscape:pageopacity="0.0"
     inkscape:pageshadow="2"
     inkscape:zoom="12.560385"
     inkscape:cx="79.382716"
     inkscape:cy="323.13793"
     inkscape:document-units="mm"
     inkscape:current-layer="layer1"
     inkscape:document-rotation="0"
     showgrid="false"
     inkscape:window-width="1440"
     inkscape:window-height="900"
     inkscape:window-x="0"
     inkscape:window-y="0"
     inkscape:window-maximized="0" />
  <metadata
     id="metadata5">
    <rdf:RDF>
      <cc:Work
         rdf:about="">
        <dc:format>image/svg+xml</dc:format>
        <dc:type
           rdf:resource="http://purl.org/dc/dcmitype/StillImage" />
        <dc:title />
      </cc:Work>
    </rdf:RDF>
  </metadata>
  <g
     inkscape:label="Layer 1"
     inkscape:groupmode="layer"
     id="layer1">
    <rect
       style="fill:#ff7f2a;fill-opacity:1;fill-rule:evenodd;stroke:none;stroke-width:0.25;stroke-linecap:round;paint-order:stroke fill markers"
       id="rect841"
       width="6.0395489"
       height="6.0395489"
       x="24.057537"
       y="80.351151" />
    <circle
       style="fill:#ffffff;fill-opacity:1;fill-rule:evenodd;stroke:none;stroke-width:0.25;stroke-linecap:round;paint-order:stroke fill markers"
       id="path1414"
       cx="27.077312"
       cy="83.370926"
       r="2.0949686" />
    <path
       inkscape:transform-center-y="-1.043227e-06"
       d="m 28.458069,84.751682 -0.795657,-0.599154 0.350722,0.932228 -0.594625,-0.799047 0.07388,0.993276 -0.345421,-0.934205 -0.208954,0.973855 -0.06823,-0.99368 -0.474857,0.875538 0.214483,-0.972652 -0.702289,0.706289 0.479821,-0.872826 -0.872826,0.479822 0.70629,-0.702289 -0.972652,0.214482 0.875537,-0.474857 -0.993679,-0.06823 0.973854,-0.208955 -0.934205,-0.345421 0.993276,0.07388 -0.799046,-0.594625 0.932227,0.350722 -0.599154,-0.795656 0.795657,0.599154 -0.350722,-0.932228 0.594625,0.799047 -0.07388,-0.993276 0.345421,0.934205 0.208954,-0.973855 0.06823,0.993679 0.474857,-0.875537 -0.214483,0.972652 0.702289,-0.706289 -0.479822,0.872826 0.872826,-0.479822 -0.706289,0.702289 0.972652,-0.214482 -0.875537,0.474856 0.993679,0.06823 -0.973854,0.208954 0.934204,0.345422 -0.993275,-0.07388 0.799046,0.594626 -0.932228,-0.350722 z"
       inkscape:randomized="0"
       inkscape:rounded="0"
       inkscape:flatsided="false"
       sodipodi:arg2="0.92819783"
       sodipodi:arg1="0.78539816"
       sodipodi:r2="0.97634196"
       sodipodi:r1="1.9526839"
       sodipodi:cy="83.370926"
       sodipodi:cx="27.077312"
       sodipodi:sides="22"
       id="path4319"
       style="fill:#ff00ff;fill-rule:evenodd;stroke:none;stroke-width:1.14194;stroke-linecap:round;stroke-dasharray:2.28388, 2.28388;paint-order:stroke fill markers"
       sodipodi:type="star" />
  </g>
</svg>
